<?xml version="1.0" encoding="UTF-8"?>
<svg id="Layer_2" data-name="Layer 2" xmlns="http://www.w3.org/2000/svg" viewBox="0 0 13.74 10.31">
  <defs>
    <style>
      .cls-1 {
        fill: #086986;
      }
    </style>
  </defs>
  <g id="Layer_1-2" data-name="Layer 1">
    <path class="cls-1" d="M12.45,0c.71,0,1.29.58,1.29,1.29,0,.41-.19.79-.52,1.03l-5.84,4.38c-.31.23-.72.23-1.03,0L.52,2.32c-.32-.24-.52-.63-.52-1.03C0,.58.58,0,1.29,0h11.17ZM5.84,7.39c.61.46,1.45.46,2.06,0l5.84-4.38v5.58c0,.95-.77,1.72-1.72,1.72H1.72c-.95,0-1.72-.77-1.72-1.72V3.01l5.84,4.38Z"/>
  </g>
</svg>