<?xml version="1.0" encoding="UTF-8"?>
<svg id="Layer_2" data-name="Layer 2" xmlns="http://www.w3.org/2000/svg" viewBox="0 0 13.74 13.74">
  <defs>
    <style>
      .cls-1 {
        fill: #086986;
      }
    </style>
  </defs>
  <g id="Layer_1-2" data-name="Layer 1">
    <path class="cls-1" d="M.22,5.15h3.3c-.06.55-.09,1.13-.09,1.72s.03,1.17.09,1.72H.22c-.14-.55-.22-1.12-.22-1.72s.08-1.17.22-1.72ZM3.63,4.29H.5C1.3,2.31,3.01.78,5.12.23c-.68.92-1.22,2.35-1.48,4.07ZM3.63,9.45c.27,1.72.8,3.15,1.48,4.07-2.1-.56-3.81-2.08-4.62-4.07h3.13ZM9.45,6.87c0,.6-.03,1.17-.09,1.72h-4.98c-.06-.55-.09-1.12-.09-1.72s.03-1.17.09-1.72h4.98c.06.55.09,1.12.09,1.72ZM9.24,4.29h-4.74c.16-.98.42-1.84.72-2.54.28-.63.6-1.09.9-1.38.3-.28.55-.37.75-.37s.45.09.75.37c.3.29.62.75.9,1.38.31.7.56,1.56.72,2.54ZM5.23,11.99c-.31-.7-.56-1.56-.72-2.54h4.74c-.16.98-.42,1.84-.72,2.54-.28.63-.6,1.09-.9,1.38-.3.29-.55.37-.75.37s-.45-.09-.75-.37c-.3-.29-.62-.75-.9-1.38h0ZM13.24,4.29h-3.13c-.27-1.72-.8-3.15-1.48-4.07,2.1.56,3.81,2.08,4.61,4.07h0ZM13.24,9.45c-.81,1.99-2.51,3.51-4.61,4.07.68-.92,1.21-2.35,1.48-4.07h3.13ZM10.22,5.15h3.3c.14.55.22,1.12.22,1.72s-.08,1.17-.22,1.72h-3.3c.06-.55.09-1.13.09-1.72s-.03-1.17-.09-1.72Z"/>
  </g>
</svg>