<?xml version="1.0" encoding="UTF-8"?>
<svg id="Layer_2" data-name="Layer 2" xmlns="http://www.w3.org/2000/svg" viewBox="0 0 10.31 13.71">
  <defs>
    <style>
      .cls-1 {
        fill: #086986;
      }
    </style>
  </defs>
  <g id="Layer_1-2" data-name="Layer 1">
    <path class="cls-1" d="M4.52,13.4C3.14,11.68,0,7.5,0,5.15,0,2.31,2.31,0,5.15,0s5.15,2.31,5.15,5.15c0,2.35-3.14,6.52-4.52,8.25-.33.41-.94.41-1.27,0ZM3.67,4.29c-.31.53-.31,1.19,0,1.72.31.53.87.86,1.49.86s1.18-.33,1.49-.86c.31-.53.31-1.19,0-1.72-.31-.53-.87-.86-1.49-.86s-1.18.33-1.49.86Z"/>
  </g>
</svg>