<?xml version="1.0" encoding="UTF-8"?>
<svg id="Layer_2" data-name="Layer 2" xmlns="http://www.w3.org/2000/svg" viewBox="0 0 160.33 199.64">
  <defs>
    <style>
      .cls-1 {
        fill: #83aeb7;
      }

      .cls-2 {
        fill: #086986;
      }

      .cls-3 {
        fill: #093651;
      }
    </style>
  </defs>
  <g id="Layer_1-2" data-name="Layer 1">
    <g>
      <path class="cls-3" d="M77.16,117.29c-4.6,0-9.37-2.52-14.18-7.48l5.51-5.34c3.27,3.37,6.27,5.15,8.68,5.15,5.97,0,12.31-11.52,16.95-30.81,4.52-18.76,6.2-38.92,6.2-47.22,0-7.8-2.89-13.84-8.58-17.96-5.39-3.9-13.1-5.96-22.29-5.96s-16.9,2.06-22.29,5.96c-5.69,4.12-8.58,10.16-8.58,17.96,0,4.28,1.38,11.5,3.78,19.81l-7.37,2.13c-2.63-9.11-4.08-16.9-4.08-21.94C30.91,12.1,45.67,0,69.45,0s38.54,12.11,38.54,31.59c0,10.85-2.25,31.72-6.41,49.02-5.86,24.34-14.07,36.68-24.41,36.68h0Z"/>
      <path class="cls-2" d="M63.17,113.48c-5.68,0-13.18-4.15-22.37-12.41-8.56-7.69-16.54-17.33-18.98-22.91-2.53-5.79-2.29-11.53.7-16.6,2.54-4.31,6.99-7.95,12.88-10.53,5.89-2.58,11.59-3.37,16.48-2.31,5.75,1.25,10.13,4.97,12.66,10.76h0c2.48,5.67,6.07,17.07,7.84,27.03,2.65,14.91.92,23.47-5.29,26.19-1.19.52-2.5.78-3.93.78h0ZM47.45,55.95c-3.5,0-6.93,1.22-8.97,2.11-4.31,1.88-13.87,7.32-9.63,17.03,1.74,3.99,8.61,12.66,17.08,20.28,10,8.99,16.3,11.09,18.09,10.3.04-.02,3.66-1.8.81-17.82-1.87-10.52-5.48-21.1-7.32-25.3-2.23-5.11-6.19-6.61-10.07-6.61h0Z"/>
      <path class="cls-1" d="M88.69,84.28c-4.03,0-7.55-.89-10.15-3.07-6.88-5.75-5.64-17.78,3.77-36.77,6.51-13.13,16.12-27.5,21.85-34.36,10.44-12.48,25.93-12.18,41.45.8,6.96,5.82,11.58,12.32,13.36,18.81,2.11,7.67.29,15.22-5.24,21.84-5.57,6.66-20.47,16.71-35.43,23.9-9.31,4.47-20.69,8.84-29.6,8.84h0ZM122.78,8.64c-6.1,0-10.27,3.42-12.73,6.36-4.35,5.2-13.86,18.72-20.87,32.85-8.34,16.82-8.42,25.22-5.72,27.48,2.92,2.44,12.93,2.12,31.52-6.81,15.23-7.31,28.67-16.88,32.87-21.91,3.96-4.74,5.18-9.61,3.73-14.89-1.37-4.98-5.13-10.15-10.89-14.96-7.21-6.03-13.16-8.12-17.92-8.12h0Z"/>
      <g>
        <path class="cls-2" d="M30.18,199.64c-6.23,0-11.6-1.36-16.12-4.09-4.52-2.72-7.99-6.53-10.42-11.41-2.43-4.88-3.64-10.52-3.64-16.93s1.21-12.14,3.64-17.02,5.9-8.7,10.42-11.45c4.52-2.75,9.89-4.13,16.12-4.13,7.49,0,13.59,1.84,18.32,5.52,4.73,3.68,7.72,8.88,8.98,15.58h-11.86c-.84-3.53-2.55-6.32-5.12-8.35-2.57-2.04-6.05-3.05-10.42-3.05-3.95,0-7.35.91-10.19,2.74-2.84,1.83-5.03,4.46-6.56,7.9-1.53,3.44-2.29,7.53-2.29,12.26s.76,8.79,2.29,12.17c1.53,3.38,3.71,5.99,6.56,7.81,2.84,1.83,6.24,2.74,10.19,2.74,4.37,0,7.85-.94,10.42-2.83,2.57-1.89,4.28-4.51,5.12-7.86h11.86c-1.2,6.35-4.18,11.33-8.94,14.96-4.76,3.62-10.88,5.43-18.37,5.43Z"/>
        <path class="cls-2" d="M64.4,198.56v-62.88h22.55c4.97,0,9.09.85,12.35,2.56,3.26,1.71,5.69,3.98,7.28,6.83,1.59,2.85,2.38,6.06,2.38,9.66,0,3.35-.78,6.47-2.34,9.34-1.56,2.87-3.98,5.18-7.28,6.92-3.3,1.74-7.52,2.6-12.66,2.6h-11.5v24.97h-10.78,0ZM75.18,165.6h11.05c4.01,0,6.96-.97,8.85-2.92,1.89-1.95,2.83-4.51,2.83-7.68s-.93-5.61-2.78-7.5c-1.86-1.89-4.82-2.83-8.89-2.83h-11.05v20.93h0ZM97.19,198.56l-13.2-27.76h11.68l13.83,27.76h-12.31,0Z"/>
        <path class="cls-2" d="M131.14,198.56v-54.16h-18.5v-8.71h47.7v8.71h-18.5v54.16h-10.69Z"/>
      </g>
      <g>
        <path class="cls-3" d="M150.39,151.21h6.55v2.3c0,.46-.07.84-.22,1.15-.15.3-.35.53-.6.68-.25.15-.54.22-.85.22-.34,0-.62-.07-.84-.22s-.4-.34-.51-.57c-.12-.23-.19-.48-.22-.74l.09.13c0,.28-.08.54-.22.78-.14.24-.34.43-.58.57s-.51.21-.81.21c-.33,0-.63-.08-.9-.24s-.49-.4-.65-.72-.24-.7-.24-1.16v-2.38h0ZM154.08,151.99v1.46c0,.42.1.75.3.97.2.22.47.33.81.33s.6-.11.79-.33.3-.55.3-1v-1.43h-2.21ZM151.04,151.99v1.51c0,.44.1.79.31,1.03.21.25.5.37.88.37s.66-.13.88-.38c.22-.25.33-.6.33-1.04v-1.49h-2.41Z"/>
        <path class="cls-3" d="M150.39,159.19h6.55v2.11c0,.51-.09.93-.26,1.25-.17.32-.4.56-.69.72s-.61.23-.97.23-.67-.08-.96-.24c-.29-.16-.53-.4-.7-.74s-.26-.76-.26-1.27v-1.29h-2.7v-.79h0ZM153.71,159.97v1.27c0,.5.12.86.36,1.1.24.23.56.35.93.35s.69-.12.92-.34c.23-.23.34-.6.34-1.12v-1.26h-2.56ZM150.39,162.65l2.93-1.44v.88l-2.93,1.49v-.93Z"/>
        <path class="cls-3" d="M150.28,169.44c0-.45.09-.86.27-1.22.18-.36.46-.66.83-.88.37-.22.85-.33,1.43-.33h4.13v.79h-4.15c-.42,0-.77.07-1.04.21s-.47.33-.59.58-.19.54-.19.86.06.62.19.86c.12.24.32.43.59.57.27.14.61.2,1.04.2h4.15v.79h-4.13c-.58,0-1.06-.11-1.43-.33-.37-.22-.65-.51-.83-.88s-.27-.78-.27-1.24h0Z"/>
        <path class="cls-3" d="M150.28,178.38c0-.61.14-1.15.43-1.61.28-.46.68-.82,1.18-1.08.51-.26,1.09-.38,1.77-.38s1.26.13,1.77.39.91.63,1.2,1.1c.29.48.43,1.04.43,1.69,0,.74-.18,1.35-.53,1.84-.35.49-.84.81-1.47.95v-.91c.39-.09.7-.29.93-.62.23-.33.35-.75.35-1.26,0-.48-.11-.9-.32-1.26s-.52-.63-.92-.83c-.4-.19-.88-.29-1.43-.29s-1.03.1-1.44.29c-.4.19-.71.46-.92.81-.21.35-.32.74-.32,1.19,0,.7.2,1.23.62,1.58.41.36.97.56,1.68.61v-1.89h.62v2.69h-3.5v-.72l1.08-.06c-.26-.16-.47-.33-.65-.54-.18-.2-.31-.44-.4-.72s-.13-.6-.13-.98h0Z"/>
        <path class="cls-3" d="M150.28,187.81c0-.61.14-1.15.43-1.61.28-.46.68-.82,1.18-1.08.51-.26,1.09-.38,1.77-.38s1.26.13,1.77.39.91.63,1.2,1.1c.29.48.43,1.04.43,1.69,0,.74-.18,1.35-.53,1.84-.35.49-.84.81-1.47.95v-.91c.39-.09.7-.29.93-.62.23-.33.35-.75.35-1.26,0-.48-.11-.9-.32-1.26s-.52-.63-.92-.83c-.4-.19-.88-.29-1.43-.29s-1.03.1-1.44.29c-.4.19-.71.46-.92.81-.21.35-.32.74-.32,1.19,0,.7.2,1.23.62,1.58.41.36.97.56,1.68.61v-1.89h.62v2.69h-3.5v-.72l1.08-.06c-.26-.16-.47-.33-.65-.54-.18-.2-.31-.44-.4-.72s-.13-.6-.13-.98h0Z"/>
        <path class="cls-3" d="M150.39,194.43h6.55v4.05h-.65v-3.26h-2.28v2.98h-.64v-2.98h-2.34v3.26h-.65v-4.05Z"/>
      </g>
    </g>
  </g>
</svg>