<?xml version="1.0" encoding="UTF-8"?>
<svg id="Layer_2" data-name="Layer 2" xmlns="http://www.w3.org/2000/svg" viewBox="0 0 13.74 13.74">
  <defs>
    <style>
      .cls-1 {
        fill: #086986;
      }
    </style>
  </defs>
  <g id="Layer_1-2" data-name="Layer 1">
    <path class="cls-1" d="M4.43.66l1.07,2.58c.18.44.06.94-.31,1.24l-1.32,1.08c.89,1.89,2.42,3.42,4.31,4.31l1.08-1.32c.3-.37.81-.49,1.24-.31l2.58,1.07c.5.21.76.75.62,1.27l-.64,2.36c-.13.47-.55.79-1.04.79C5.38,13.74,0,8.36,0,1.72c0-.48.32-.91.79-1.04L3.15.04c.52-.14,1.07.12,1.27.62h0Z"/>
  </g>
</svg>